/* XPM */
static char * battery_empty_xpm[] = {
"16 16 2 1",
"  c #2B2E37",
". c #F44336",
"                ",
"  ............  ",
"  .          .  ",
"  .          .  ",
"  .          .  ",
"  .          .  ",
"  .          .  ",
"  .          .  ",
"  .          .  ",
"  .          .  ",
"  .          .  ",
"  .          .  ",
"  .          .  ",
"  ............  ",
"      ..        ",
"                "
};
