/* XPM */
static char * battery_medium_xpm[] = {
"16 16 3 1",
"  c #2B2E37",
". c #FFEB3B",
"+ c #4CAF50",
"                ",
"  ++++++++++++  ",
"  +..........+  ",
"  +..........+  ",
"  +..........+  ",
"  +..........+  ",
"  +..........+  ",
"  +..........+  ",
"  +..........+  ",
"  +..........+  ",
"  +..........+  ",
"  +..........+  ",
"  +..........+  ",
"  ++++++++++++  ",
"      ..        ",
"                "
};
